Coordinates
version=1
nRows=17
nColumns=40
inDegrees=yes

Units are S.I. units (second, meters, Newtons, ...)
If the header above contains a line with 'inDegrees', this indicates whether rotational values are in degrees (yes) or radians (no).

endheader
time	pelvis_tilt	pelvis_list	pelvis_rotation	pelvis_tx	pelvis_ty	pelvis_tz	hip_flexion_r	hip_adduction_r	hip_rotation_r	knee_angle_r	knee_angle_r_beta	ankle_angle_r	subtalar_angle_r	mtp_angle_r	hip_flexion_l	hip_adduction_l	hip_rotation_l	knee_angle_l	knee_angle_l_beta	ankle_angle_l	subtalar_angle_l	mtp_angle_l	lumbar_extension	lumbar_bending	lumbar_rotation	arm_flex_r	arm_add_r	arm_rot_r	elbow_flex_r	pro_sup_r	wrist_flex_r	wrist_dev_r	arm_flex_l	arm_add_l	arm_rot_l	elbow_flex_l	pro_sup_l	wrist_flex_l	wrist_dev_l
      7.84166667	      5.60819583	     -4.41726125	     -1.63760768	     -0.39554305	      1.20398202	      0.02652521	     43.20122705	     -0.30139163	     -1.45577715	     83.65372345	      1.46003291	     -1.78429613	    -25.50812627	      0.00000000	     51.75887090	     -3.29730537	     15.20062645	     66.66539335	      1.16353061	      9.64915647	    -32.17914826	      0.00000000	    -68.56459016	      2.14432514	     11.07522261	     75.90851464	    -10.51793512	      1.22716417	     52.57986573	      9.70261452	      0.00000000	      0.00000000	     89.89686129	      3.48870499	     25.20569624	     22.53647607	     85.33758933	      0.00000000	      0.00000000
      7.85000000	      5.71513164	     -5.05804752	     -1.58989961	     -0.39525763	      1.20392881	      0.02684072	     44.78263459	      0.08493144	     -1.83619129	     86.42633095	      1.50842404	     -1.29492250	    -25.37157990	      0.00000000	     49.58957631	     -4.27980420	     15.30909831	     63.44657677	      1.10735166	      8.60591195	    -31.79356978	      0.00000000	    -68.63624884	      2.59658527	     11.67513682	     75.97095447	    -10.32292638	      1.25131429	     52.38813481	      9.81685024	      0.00000000	      0.00000000	     89.89439247	      3.50691842	     25.30833041	     22.06863234	     85.29835070	      0.00000000	      0.00000000
      7.85833333	      5.68599369	     -5.61047449	     -1.60565139	     -0.39529154	      1.20394331	      0.02725527	     46.55190963	      0.51367050	     -2.04116907	     89.02770243	      1.55382653	     -0.65581318	    -25.09454663	      0.00000000	     47.48698154	     -5.23676232	     15.28001981	     60.09046782	      1.04877651	      7.32248389	    -31.49720470	      0.00000000	    -68.62232218	      2.96149339	     12.19171422	     76.10632415	    -10.05059687	      1.25656460	     52.13822891	      9.90619635	      0.00000000	      0.00000000	     89.89416970	      3.43564057	     25.36854525	     21.75145780	     85.32539143	      0.00000000	      0.00000000
      7.86666667	      5.64440144	     -4.99145584	     -2.07467592	     -0.39538742	      1.20397750	      0.02722724	     48.63869692	      0.09815202	     -1.06556223	     91.87452675	      1.60351299	      0.71483814	    -23.10862662	      0.00000000	     44.92609898	     -5.10733129	     14.76452484	     56.56474467	      0.98724103	      4.80805545	    -33.93129959	      0.00000000	    -68.53759987	      2.44035791	     11.68435413	     76.28132514	     -9.32342929	      0.57227375	     51.69463385	     10.76509426	      0.00000000	      0.00000000	     89.89224718	      3.09825942	     25.73870616	     21.76487966	     85.42977081	      0.00000000	      0.00000000
      7.87500000	      5.63893343	     -5.34722639	     -2.20937719	     -0.39511801	      1.20369998	      0.02731164	     50.55305221	      0.24988648	     -1.20068363	     94.34658875	      1.64665861	      1.52319725	    -22.58316509	      0.00000000	     42.79340058	     -5.94369887	     14.45441972	     53.60854315	      0.93564559	      3.44137911	    -33.88636759	      0.00000000	    -68.50387351	      2.64861794	     12.03368694	     76.39851364	     -9.11634321	      0.74696448	     51.44141668	     11.00409283	      0.00000000	      0.00000000	     89.88749877	      3.09593237	     25.39226223	     21.35387425	     85.28304366	      0.00000000	      0.00000000
      7.88333333	      5.69870809	     -5.52757759	     -2.29934887	     -0.39476187	      1.20361074	      0.02724938	     52.38824918	      0.22293709	     -1.21481395	     96.74707602	      1.68855502	      2.70255483	    -22.01782931	      0.00000000	     40.45140798	     -6.43606089	     14.33625285	     50.66538348	      0.88427776	      1.90602652	    -34.58041533	      0.00000000	    -68.52481020	      2.81094042	     12.20083187	     76.49034435	     -8.74416305	      0.55954359	     51.20838985	     11.81813648	      0.00000000	      0.00000000	     89.88407624	      2.96300740	     25.66420479	     21.00433945	     85.21313509	      0.00000000	      0.00000000
      7.89166667	      5.57448463	     -6.08889936	     -2.36211455	     -0.39445678	      1.20303752	      0.02766559	     54.36414035	      0.50705886	     -1.66280734	     98.93717673	      1.72677949	      4.11322254	    -21.93637364	      0.00000000	     38.58622952	     -7.45753117	     14.04178976	     48.09706840	      0.83945220	      0.91296526	    -33.60940885	      0.00000000	    -68.36380389	      3.17171327	     12.71522722	     76.56740006	     -8.40416049	      0.42983979	     50.91063757	     13.02326232	      0.00000000	      0.00000000	     89.88156906	      2.86303493	     26.15016457	     20.51546880	     83.97658756	      0.00000000	      0.00000000
      7.90000000	      5.73915623	     -6.25632644	     -2.57451915	     -0.39402925	      1.20327503	      0.02765861	     56.02941287	      0.50751672	     -1.65153863	    100.92428944	      1.76146115	      5.78518848	    -20.77234118	      0.00000000	     36.24827846	     -8.01220869	     13.73233696	     45.56283928	      0.79522156	     -0.67807748	    -34.23773663	      0.00000000	    -68.52658960	      3.21914303	     12.87754328	     76.73230232	     -8.10310999	      0.52406530	     50.63869649	     12.67129326	      0.00000000	      0.00000000	     89.87337750	      2.66792743	     26.17838507	     20.34857966	     85.11758987	      0.00000000	      0.00000000
      7.90833333	      5.51237104	     -6.79927657	     -2.49922747	     -0.39386494	      1.20262023	      0.02768439	     58.07227121	      0.67765860	     -2.15918845	    102.67227365	      1.79196923	      7.08283446	    -20.83207712	      0.00000000	     34.67405097	     -8.85512071	     13.54666763	     43.39484312	      0.75738289	     -1.59825524	    -33.48311073	      0.00000000	    -68.28387257	      3.71624177	     13.35564170	     76.87488772	     -7.88795871	      0.54500631	     50.29029443	     13.24106615	      0.00000000	      0.00000000	     89.86929958	      2.67110311	     26.41423975	     19.86314846	     84.14974966	      0.00000000	      0.00000000
      7.91666667	      5.42157488	     -7.30706498	     -2.69079936	     -0.39380717	      1.20254378	      0.02809098	     60.00502844	      1.08841340	     -2.47079443	    104.22160715	      1.81901020	      8.61286611	    -20.56061602	      0.00000000	     33.00659355	     -9.80800940	     13.07344130	     41.51810338	      0.72462760	     -3.10082264	    -33.04179366	      0.00000000	    -68.24012719	      3.95392222	     13.80734184	     77.09292391	     -7.55748583	      0.69423530	     49.91740721	     13.14828184	      0.00000000	      0.00000000	     89.86120070	      2.40996195	     26.76355814	     19.77856028	     84.55236976	      0.00000000	      0.00000000
      7.92500000	      5.69514882	     -7.49747435	     -2.76717818	     -0.39311732	      1.20285977	      0.02794856	     61.30837544	      1.08049877	     -2.54562291	    105.48915852	      1.84113314	     10.64827397	    -19.50069448	      0.00000000	     31.01320439	    -10.30711631	     12.48900883	     39.94413755	      0.69715672	     -4.05072522	    -32.79778314	      0.00000000	    -68.47973147	      4.11570955	     13.92729040	     77.27479917	     -7.23004873	      0.76183156	     49.50415113	     13.05198086	      0.00000000	      0.00000000	     89.85563674	      2.23210842	     27.11821537	     19.51301216	     84.87970790	      0.00000000	      0.00000000
      7.93333333	      5.59616442	     -7.87887438	     -2.68309046	     -0.39295390	      1.20268321	      0.02776403	     63.03528243	      1.12925017	     -2.92681519	    106.47758080	      1.85838436	     11.93143642	    -19.68851033	      0.00000000	     29.74314259	    -10.86703323	     12.28069058	     38.83866504	      0.67786258	     -4.92662489	    -32.44370122	      0.00000000	    -68.39644406	      4.54374168	     14.22150983	     77.46788698	     -6.99093624	      0.87627553	     49.15524901	     13.08615583	      0.00000000	      0.00000000	     89.85067490	      2.16612575	     27.17388525	     19.20904235	     84.90092935	      0.00000000	      0.00000000
      7.94166667	      5.54698828	     -8.22632423	     -2.65446969	     -0.39289442	      1.20286309	      0.02762329	     64.58604125	      1.27482316	     -3.21501034	    107.11224562	      1.86946136	     13.27300385	    -19.71665478	      0.00000000	     28.66808106	    -11.44833235	     11.72957035	     38.12802291	      0.66545954	     -5.91811323	    -32.02264011	      0.00000000	    -68.39128368	      4.89590895	     14.47298090	     77.73173492	     -6.66146382	      0.90436701	     48.67565078	     13.14627399	      0.00000000	      0.00000000	     89.84632543	      2.05847184	     27.25865879	     19.03923847	     84.90713773	      0.00000000	      0.00000000
      7.95000000	      5.51507575	     -8.49815475	     -2.58543309	     -0.39282086	      1.20328152	      0.02734411	     65.99822693	      1.24945096	     -3.53579119	    107.41717506	      1.87478338	     14.29260315	    -19.50814813	      0.00000000	     27.70511871	    -11.87484688	     11.26536976	     37.76844500	      0.65918372	     -6.48434796	    -31.76646672	      0.00000000	    -68.41784933	      5.24225759	     14.63870914	     77.95126204	     -6.32595087	      0.87959493	     48.29227446	     13.21392949	      0.00000000	      0.00000000	     89.84460108	      1.96180256	     27.29559744	     18.85507484	     84.89015227	      0.00000000	      0.00000000
      7.95833333	      5.48446177	     -8.67160289	     -2.59180885	     -0.39291412	      1.20385562	      0.02702789	     67.28530001	      1.26356084	     -3.64769679	    107.40757261	      1.87461578	     15.47535239	    -18.43127803	      0.00000000	     26.91817630	    -12.17127291	     10.84737902	     37.86056269	      0.66079148	     -6.77501344	    -31.37074883	      0.00000000	    -68.45852314	      5.48133033	     14.73716445	     78.19187129	     -5.79177767	      0.39642222	     47.78350228	     13.87581445	      0.00000000	      0.00000000	     89.84095436	      1.84967354	     27.33687879	     18.79925212	     84.83573404	      0.00000000	      0.00000000
      7.96666667	      5.50956420	     -8.74648327	     -2.56562702	     -0.39309822	      1.20481023	      0.02662406	     68.35285722	      1.32747192	     -3.66768426	    107.07550001	      1.86882002	     15.96554099	    -18.45636411	      0.00000000	     26.26023733	    -12.23189707	     10.81097417	     38.38844623	      0.67000478	     -7.06552488	    -31.29692856	      0.00000000	    -68.57597425	      5.67880111	     14.73949187	     78.41795671	     -5.43986743	      0.39099647	     47.52363407	     13.95588157	      0.00000000	      0.00000000	     89.84164506	      1.73687616	     27.26655957	     18.79798449	     84.79371596	      0.00000000	      0.00000000
      7.97500000	      5.48213999	     -8.80256298	     -2.55905996	     -0.39339779	      1.20562570	      0.02619930	     69.27368052	      1.39829114	     -3.71532780	    106.44378452	      1.85779451	     16.57263318	    -18.39532487	      0.00000000	     25.90397295	    -12.24862876	     10.72661539	     39.33653103	      0.68655198	     -7.23517654	    -31.45720650	      0.00000000	    -68.63719077	      5.84868162	     14.75244493	     78.68764919	     -5.04381589	      0.17800811	     47.08528549	     14.07325600	      0.00000000	      0.00000000	     89.83955712	      1.65329886	     27.19083858	     18.85576702	     84.74119079	      0.00000000	      0.00000000
